<svg xmlns="http://www.w3.org/2000/svg" version="1.0" width="128.000000pt" height="128.000000pt" viewBox="0 0 128.000000 128.000000" preserveAspectRatio="xMidYMid meet" transform="matrix(-1, 0, 0, 1, 0, 0)">

<g transform="translate(0.000000,128.000000) scale(0.100000,-0.100000)" fill="#5b3a29" stroke="none">
<path d="M502 998 c-32 -32 -14 -61 123 -198 102 -102 135 -141 135 -160 0 -19 -33 -58 -135 -160 -137 -137 -155 -166 -123 -198 31 -31 60 -13 190 115 71 71 139 143 150 161 25 40 27 116 5 158 -8 16 -76 89 -150 162 -135 134 -164 151 -195 120z" fill="#5b3a29"/>
</g>
</svg>