<svg xmlns="http://www.w3.org/2000/svg" version="1.0" width="512.000000pt" height="512.000000pt" viewBox="0 0 512.000000 512.000000" preserveAspectRatio="xMidYMid meet">

<g transform="translate(0.000000,512.000000) scale(0.100000,-0.100000)" fill="#5b3a29" stroke="none">
<path d="M2236 5035 c-313 -44 -549 -117 -819 -251 -919 -458 -1481 -1436 -1408 -2448 26 -370 103 -657 262 -975 283 -569 751 -1002 1335 -1236 172 -70 227 -74 280 -21 l34 34 0 262 0 263 -37 -6 c-138 -22 -239 -27 -330 -17 -170 19 -286 71 -388 174 -50 50 -73 88 -132 206 -79 160 -148 249 -252 319 -75 52 -103 84 -99 112 9 68 174 63 298 -9 69 -39 146 -118 210 -212 139 -205 272 -278 480 -267 63 3 122 13 175 31 l81 26 16 70 c21 88 54 161 102 223 21 27 36 50 34 51 -2 2 -43 8 -91 15 -124 17 -299 62 -403 105 -436 178 -654 551 -655 1119 0 202 21 307 91 463 30 66 93 163 140 218 l29 32 -21 65 c-45 140 -33 393 26 554 l21 60 85 -1 c62 -1 108 -9 170 -29 98 -31 271 -115 374 -182 l71 -46 80 17 c401 86 739 87 1108 4 86 -19 102 -20 120 -8 270 172 485 257 627 248 l55 -3 22 -60 c58 -161 69 -414 25 -553 l-20 -64 46 -58 c99 -123 164 -265 198 -430 14 -69 16 -118 11 -280 -8 -274 -45 -435 -141 -616 -163 -305 -429 -472 -877 -547 l-136 -23 32 -36 c45 -53 80 -121 106 -208 22 -72 23 -95 28 -533 l6 -459 33 -29 c52 -47 109 -41 279 26 1090 437 1745 1576 1574 2741 -106 718 -513 1360 -1116 1761 -308 204 -620 327 -1000 394 -156 28 -585 36 -739 14z" fill="#5b3a29"/>
<path d="M905 1411 c-7 -12 22 -41 40 -41 21 0 28 19 15 35 -14 17 -46 20 -55 6z" fill="#5b3a29"/>
<path d="M1010 1312 c0 -25 35 -56 55 -49 18 7 19 21 5 48 -14 25 -60 26 -60 1z" fill="#5b3a29"/>
<path d="M1110 1179 c0 -34 19 -59 45 -59 21 0 25 5 25 28 0 34 -16 52 -47 52 -17 0 -23 -6 -23 -21z" fill="#5b3a29"/>
<path d="M1237 1053 c-14 -13 -7 -50 12 -67 23 -21 65 -17 69 6 6 33 -60 82 -81 61z" fill="#5b3a29"/>
<path d="M1412 938 c-19 -19 -14 -36 13 -54 53 -35 105 14 53 50 -27 19 -50 20 -66 4z" fill="#5b3a29"/>
<path d="M1822 924 c-27 -19 -28 -40 -2 -54 45 -24 107 21 74 54 -20 20 -43 20 -72 0z" fill="#5b3a29"/>
<path d="M1611 891 c-22 -40 42 -68 85 -37 28 21 7 50 -39 54 -27 2 -38 -2 -46 -17z" fill="#5b3a29"/>
</g>
</svg>